<svg id="Layer_3" enable-background="new 0 0 64 64" height="512" viewBox="0 0 64 64" width="512" xmlns="http://www.w3.org/2000/svg"><path d="m2 2h42v56h-42z" fill="#e1e1e1"/><g fill="#5b5b5b"><path d="m21 5h20v2h-20z"/><path d="m21 9h20v2h-20z"/><path d="m21 13h20v2h-20z"/><path d="m21 17h20v2h-20z"/><path d="m21 21h18v2h-18z"/><path d="m21 25h14v2h-14z"/><path d="m21 29h12v2h-12z"/><path d="m21 33h15v2h-15z"/><path d="m21 37h15v2h-15z"/><path d="m21 41h15v2h-15z"/><path d="m21 45h15v2h-15z"/><path d="m21 49h11v2h-11z"/></g><path d="m6 6h12v4h-12z" fill="#98775a"/><path d="m6 6h9v4h-9z" fill="#cb9e78"/><path d="m6 14h12v4h-12z" fill="#98775a"/><path d="m6 14h9v4h-9z" fill="#cb9e78"/><path d="m6 22h12v4h-12z" fill="#98775a"/><path d="m6 22h9v4h-9z" fill="#cb9e78"/><path d="m6 30h12v4h-12z" fill="#98775a"/><path d="m6 30h9v4h-9z" fill="#cb9e78"/><path d="m6 38h12v4h-12z" fill="#98775a"/><path d="m6 38h9v4h-9z" fill="#cb9e78"/><path d="m6 46h12v4h-12z" fill="#98775a"/><path d="m6 46h9v4h-9z" fill="#cb9e78"/><path d="m34 26 23.293-23.293c.453-.453 1.067-.707 1.707-.707.64 0 1.254.254 1.707.707l.586.586c.453.453.707 1.067.707 1.707 0 .64-.254 1.254-.707 1.707l-23.293 23.293z" fill="#cb9e78"/><path d="m61.293 3.293-.586-.586c-.453-.453-1.067-.707-1.707-.707s-1.254.254-1.707.707l-3.293 3.293 4 4 3.293-3.293c.453-.453.707-1.067.707-1.707s-.254-1.254-.707-1.707z" fill="#98775a"/><path d="m34 26-4 8 8-4z" fill="#fcc062"/><path d="m49 48h2.172c1.811 0 3.548.719 4.828 2 1.281 1.281 2 3.017 2 4.828v7.172h-24v-7.172c0-1.811.719-3.548 2-4.828 1.281-1.281 3.017-2 4.828-2h2.172l3 4z" fill="#71b38e"/><path d="m46 52 3-4h3l-2 6z" fill="#395a47"/><path d="m46 52-3-4h-3l2 6z" fill="#395a47"/><path d="m53 39c0 3.866-3.134 7-7 7-3.866 0-7-3.134-7-7 2.561 0 5.017-1.017 6.828-2.828l.172-.172.172.172c1.811 1.811 4.267 2.828 6.828 2.828z" fill="#fdd089"/><path d="m46 46c-1.075 0-2.09-.25-3-.683v2.683l3 4 3-4v-2.683c-.91.433-1.925.683-3 .683z" fill="#fdd089"/><path d="m46 36 .172.172c1.811 1.811 4.267 2.828 6.828 2.828 0-3.866-3.134-7-7-7s-7 3.134-7 7c2.561 0 5.017-1.017 6.828-2.828z" fill="#5b6673"/></svg>